<?xml version="1.0" ?>
<mxfile host="65bd71144e">
	<diagram id="RFndyrCF2-3MIdXtw8gX" name="Page-1">
		<mxGraphModel dx="422" dy="816" grid="1" gridSize="10" guides="1" tooltips="1" connect="1" arrows="1" fold="1" page="1" pageScale="1" pageWidth="850" pageHeight="1100" math="0" shadow="0">
			<root>
				<mxCell id="0"/>
				<mxCell id="1" parent="0"/>
				<mxCell id="5630082352" value="&lt;b&gt;Module&lt;/b&gt;" style="rounded=1;whiteSpace=wrap;html=1;fillColor=#CC99FF;strokeColor=#000000;" parent="1" vertex="1">
					<mxGeometry x="637.02" y="0.0" width="120" height="120" as="geometry"/>
				</mxCell>
				<mxCell id="5630082016" value="&lt;b&gt;FunctionDef&lt;/b&gt;&lt;br&gt;name: main&lt;br&gt;lineno: 2&lt;br&gt;col_offset: 0&lt;br&gt;end_lineno: 8&lt;br&gt;end_col_offset: 14" style="rounded=1;whiteSpace=wrap;html=1;fillColor=#66B2FF;strokeColor=#000000;" parent="1" vertex="1">
					<mxGeometry x="637.02" y="144.0" width="120" height="120" as="geometry"/>
				</mxCell>
				<mxCell id="5630081728" value="&lt;b&gt;arguments&lt;/b&gt;" style="rounded=1;whiteSpace=wrap;html=1;fillColor=#E6E6E6;strokeColor=#000000;" parent="1" vertex="1">
					<mxGeometry x="910.02" y="288.0" width="120" height="120" as="geometry"/>
				</mxCell>
				<mxCell id="5630081632" value="&lt;b&gt;FunctionDef&lt;/b&gt;&lt;br&gt;name: plus&lt;br&gt;lineno: 3&lt;br&gt;col_offset: 4&lt;br&gt;end_lineno: 4&lt;br&gt;end_col_offset: 20" style="rounded=1;whiteSpace=wrap;html=1;fillColor=#66B2FF;strokeColor=#000000;" parent="1" vertex="1">
					<mxGeometry x="778.02" y="288.0" width="120" height="120" as="geometry"/>
				</mxCell>
				<mxCell id="5630081488" value="&lt;b&gt;arguments&lt;/b&gt;" style="rounded=1;whiteSpace=wrap;html=1;fillColor=#E6E6E6;strokeColor=#000000;" parent="1" vertex="1">
					<mxGeometry x="1042.02" y="432.0" width="120" height="120" as="geometry"/>
				</mxCell>
				<mxCell id="5630081296" value="&lt;b&gt;arg&lt;/b&gt;&lt;br&gt;arg: a&lt;br&gt;lineno: 3&lt;br&gt;col_offset: 13&lt;br&gt;end_lineno: 3&lt;br&gt;end_col_offset: 14" style="rounded=1;whiteSpace=wrap;html=1;fillColor=#E6E6E6;strokeColor=#000000;" parent="1" vertex="1">
					<mxGeometry x="1174.019" y="576.0" width="120" height="120" as="geometry"/>
				</mxCell>
				<mxCell id="5630081248" value="&lt;b&gt;arg&lt;/b&gt;&lt;br&gt;arg: b&lt;br&gt;lineno: 3&lt;br&gt;col_offset: 16&lt;br&gt;end_lineno: 3&lt;br&gt;end_col_offset: 17" style="rounded=1;whiteSpace=wrap;html=1;fillColor=#E6E6E6;strokeColor=#000000;" parent="1" vertex="1">
					<mxGeometry x="1042.02" y="576.0" width="120" height="120" as="geometry"/>
				</mxCell>
				<mxCell id="5630081392" value="&lt;b&gt;Return&lt;/b&gt;&lt;br&gt;lineno: 4&lt;br&gt;col_offset: 8&lt;br&gt;end_lineno: 4&lt;br&gt;end_col_offset: 20" style="rounded=1;whiteSpace=wrap;html=1;fillColor=#D6FFC9;strokeColor=#000000;" parent="1" vertex="1">
					<mxGeometry x="849.02" y="432.0" width="120" height="120" as="geometry"/>
				</mxCell>
				<mxCell id="5630081152" value="&lt;b&gt;BinOp&lt;/b&gt;&lt;br&gt;lineno: 4&lt;br&gt;col_offset: 15&lt;br&gt;end_lineno: 4&lt;br&gt;end_col_offset: 20" style="rounded=1;whiteSpace=wrap;html=1;fillColor=#CCCCFF;strokeColor=#000000;" parent="1" vertex="1">
					<mxGeometry x="910.02" y="576.0" width="120" height="120" as="geometry"/>
				</mxCell>
				<mxCell id="5630081008" value="&lt;b&gt;Name&lt;/b&gt;&lt;br&gt;id: a&lt;br&gt;lineno: 4&lt;br&gt;col_offset: 15&lt;br&gt;end_lineno: 4&lt;br&gt;end_col_offset: 16" style="rounded=1;whiteSpace=wrap;html=1;fillColor=#CCE5FF;strokeColor=#000000;" parent="1" vertex="1">
					<mxGeometry x="1108.02" y="720.0" width="120" height="120" as="geometry"/>
				</mxCell>
				<mxCell id="5630080864" value="&lt;b&gt;Load&lt;/b&gt;" style="rounded=1;whiteSpace=wrap;html=1;fillColor=#E6E6E6;strokeColor=#000000;" parent="1" vertex="1">
					<mxGeometry x="306.02" y="864.0" width="120" height="120" as="geometry"/>
				</mxCell>
				<mxCell id="5630080912" value="&lt;b&gt;Add&lt;/b&gt;" style="rounded=1;whiteSpace=wrap;html=1;fillColor=#E6E6E6;strokeColor=#000000;" parent="1" vertex="1">
					<mxGeometry x="844.02" y="720.0" width="120" height="120" as="geometry"/>
				</mxCell>
				<mxCell id="5630080768" value="&lt;b&gt;Name&lt;/b&gt;&lt;br&gt;id: b&lt;br&gt;lineno: 4&lt;br&gt;col_offset: 19&lt;br&gt;end_lineno: 4&lt;br&gt;end_col_offset: 20" style="rounded=1;whiteSpace=wrap;html=1;fillColor=#CCE5FF;strokeColor=#000000;" parent="1" vertex="1">
					<mxGeometry x="976.02" y="720.0" width="120" height="120" as="geometry"/>
				</mxCell>
				<mxCell id="5630081536" value="&lt;b&gt;Assign&lt;/b&gt;&lt;br&gt;lineno: 6&lt;br&gt;col_offset: 4&lt;br&gt;end_lineno: 6&lt;br&gt;end_col_offset: 15" style="rounded=1;whiteSpace=wrap;html=1;fillColor=#D6FFC9;strokeColor=#000000;" parent="1" vertex="1">
					<mxGeometry x="637.02" y="288.0" width="120" height="120" as="geometry"/>
				</mxCell>
				<mxCell id="5630081344" value="&lt;b&gt;Tuple&lt;/b&gt;&lt;br&gt;lineno: 6&lt;br&gt;col_offset: 4&lt;br&gt;end_lineno: 6&lt;br&gt;end_col_offset: 8" style="rounded=1;whiteSpace=wrap;html=1;fillColor=#FFD9B3;strokeColor=#000000;" parent="1" vertex="1">
					<mxGeometry x="481.02" y="432.0" width="120" height="120" as="geometry"/>
				</mxCell>
				<mxCell id="5630080672" value="&lt;b&gt;Name&lt;/b&gt;&lt;br&gt;id: x&lt;br&gt;lineno: 6&lt;br&gt;col_offset: 4&lt;br&gt;end_lineno: 6&lt;br&gt;end_col_offset: 5" style="rounded=1;whiteSpace=wrap;html=1;fillColor=#CCE5FF;strokeColor=#000000;" parent="1" vertex="1">
					<mxGeometry x="438.02" y="576.0" width="120" height="120" as="geometry"/>
				</mxCell>
				<mxCell id="5630079184" value="&lt;b&gt;Store&lt;/b&gt;" style="rounded=1;whiteSpace=wrap;html=1;fillColor=#E6E6E6;strokeColor=#000000;" parent="1" vertex="1">
					<mxGeometry x="438.02" y="720.0" width="120" height="120" as="geometry"/>
				</mxCell>
				<mxCell id="5630080624" value="&lt;b&gt;Name&lt;/b&gt;&lt;br&gt;id: y&lt;br&gt;lineno: 6&lt;br&gt;col_offset: 7&lt;br&gt;end_lineno: 6&lt;br&gt;end_col_offset: 8" style="rounded=1;whiteSpace=wrap;html=1;fillColor=#CCE5FF;strokeColor=#000000;" parent="1" vertex="1">
					<mxGeometry x="306.02" y="576.0" width="120" height="120" as="geometry"/>
				</mxCell>
				<mxCell id="5630081584" value="&lt;b&gt;Tuple&lt;/b&gt;&lt;br&gt;lineno: 6&lt;br&gt;col_offset: 11&lt;br&gt;end_lineno: 6&lt;br&gt;end_col_offset: 15" style="rounded=1;whiteSpace=wrap;html=1;fillColor=#FFD9B3;strokeColor=#000000;" parent="1" vertex="1">
					<mxGeometry x="698.02" y="432.0" width="120" height="120" as="geometry"/>
				</mxCell>
				<mxCell id="5630080192" value="&lt;b&gt;Constant&lt;/b&gt;&lt;br&gt;value: 1&lt;br&gt;lineno: 6&lt;br&gt;col_offset: 11&lt;br&gt;end_lineno: 6&lt;br&gt;end_col_offset: 12" style="rounded=1;whiteSpace=wrap;html=1;fillColor=#FFFFFF;strokeColor=#000000;" parent="1" vertex="1">
					<mxGeometry x="740.02" y="576.0" width="120" height="120" as="geometry"/>
				</mxCell>
				<mxCell id="5630080384" value="&lt;b&gt;Constant&lt;/b&gt;&lt;br&gt;value: 2&lt;br&gt;lineno: 6&lt;br&gt;col_offset: 14&lt;br&gt;end_lineno: 6&lt;br&gt;end_col_offset: 15" style="rounded=1;whiteSpace=wrap;html=1;fillColor=#FFFFFF;strokeColor=#000000;" parent="1" vertex="1">
					<mxGeometry x="608.02" y="576.0" width="120" height="120" as="geometry"/>
				</mxCell>
				<mxCell id="5630081200" value="&lt;b&gt;Assign&lt;/b&gt;&lt;br&gt;lineno: 7&lt;br&gt;col_offset: 4&lt;br&gt;end_lineno: 7&lt;br&gt;end_col_offset: 20" style="rounded=1;whiteSpace=wrap;html=1;fillColor=#D6FFC9;strokeColor=#000000;" parent="1" vertex="1">
					<mxGeometry x="174.0" y="432.0" width="120" height="120" as="geometry"/>
				</mxCell>
				<mxCell id="5630080960" value="&lt;b&gt;Name&lt;/b&gt;&lt;br&gt;id: res&lt;br&gt;lineno: 7&lt;br&gt;col_offset: 4&lt;br&gt;end_lineno: 7&lt;br&gt;end_col_offset: 7" style="rounded=1;whiteSpace=wrap;html=1;fillColor=#CCE5FF;strokeColor=#000000;" parent="1" vertex="1">
					<mxGeometry x="174.0" y="576.0" width="120" height="120" as="geometry"/>
				</mxCell>
				<mxCell id="5630081056" value="&lt;b&gt;Call&lt;/b&gt;&lt;br&gt;lineno: 7&lt;br&gt;col_offset: 10&lt;br&gt;end_lineno: 7&lt;br&gt;end_col_offset: 20" style="rounded=1;whiteSpace=wrap;html=1;fillColor=#FFCCFF;strokeColor=#000000;" parent="1" vertex="1">
					<mxGeometry x="42.0" y="576.0" width="120" height="120" as="geometry"/>
				</mxCell>
				<mxCell id="5630079424" value="&lt;b&gt;Name&lt;/b&gt;&lt;br&gt;id: plus&lt;br&gt;lineno: 7&lt;br&gt;col_offset: 10&lt;br&gt;end_lineno: 7&lt;br&gt;end_col_offset: 14" style="rounded=1;whiteSpace=wrap;html=1;fillColor=#CCE5FF;strokeColor=#000000;" parent="1" vertex="1">
					<mxGeometry x="306.02" y="720.0" width="120" height="120" as="geometry"/>
				</mxCell>
				<mxCell id="5630024128" value="&lt;b&gt;Name&lt;/b&gt;&lt;br&gt;id: x&lt;br&gt;lineno: 7&lt;br&gt;col_offset: 15&lt;br&gt;end_lineno: 7&lt;br&gt;end_col_offset: 16" style="rounded=1;whiteSpace=wrap;html=1;fillColor=#CCE5FF;strokeColor=#000000;" parent="1" vertex="1">
					<mxGeometry x="174.0" y="720.0" width="120" height="120" as="geometry"/>
				</mxCell>
				<mxCell id="5630032432" value="&lt;b&gt;Name&lt;/b&gt;&lt;br&gt;id: y&lt;br&gt;lineno: 7&lt;br&gt;col_offset: 18&lt;br&gt;end_lineno: 7&lt;br&gt;end_col_offset: 19" style="rounded=1;whiteSpace=wrap;html=1;fillColor=#CCE5FF;strokeColor=#000000;" parent="1" vertex="1">
					<mxGeometry x="42.0" y="720.0" width="120" height="120" as="geometry"/>
				</mxCell>
				<mxCell id="5630081104" value="&lt;b&gt;Return&lt;/b&gt;&lt;br&gt;lineno: 8&lt;br&gt;col_offset: 4&lt;br&gt;end_lineno: 8&lt;br&gt;end_col_offset: 14" style="rounded=1;whiteSpace=wrap;html=1;fillColor=#D6FFC9;strokeColor=#000000;" parent="1" vertex="1">
					<mxGeometry x="62.0" y="288.0" width="120" height="120" as="geometry"/>
				</mxCell>
				<mxCell id="5630080000" value="&lt;b&gt;Name&lt;/b&gt;&lt;br&gt;id: res&lt;br&gt;lineno: 8&lt;br&gt;col_offset: 11&lt;br&gt;end_lineno: 8&lt;br&gt;end_col_offset: 14" style="rounded=1;whiteSpace=wrap;html=1;fillColor=#CCE5FF;strokeColor=#000000;" parent="1" vertex="1">
					<mxGeometry x="0.0" y="432.0" width="120" height="120" as="geometry"/>
				</mxCell>
				<mxCell id="5630082352_5630082016" value="['body', 0]" style="endArrow=classic;html=1;" parent="1" source="5630082352" target="5630082016" edge="1">
					<mxGeometry width="50" height="50" relative="1" as="geometry">
						<mxPoint x="400" y="440" as="sourcePoint"/>
						<mxPoint x="450" y="390" as="targetPoint"/>
					</mxGeometry>
				</mxCell>
				<mxCell id="5630082016_5630081728" value="['args']" style="endArrow=classic;html=1;" parent="1" source="5630082016" target="5630081728" edge="1">
					<mxGeometry width="50" height="50" relative="1" as="geometry">
						<mxPoint x="400" y="440" as="sourcePoint"/>
						<mxPoint x="450" y="390" as="targetPoint"/>
					</mxGeometry>
				</mxCell>
				<mxCell id="5630082016_5630081632" value="['body', 0]" style="endArrow=classic;html=1;" parent="1" source="5630082016" target="5630081632" edge="1">
					<mxGeometry width="50" height="50" relative="1" as="geometry">
						<mxPoint x="400" y="440" as="sourcePoint"/>
						<mxPoint x="450" y="390" as="targetPoint"/>
					</mxGeometry>
				</mxCell>
				<mxCell id="5630081632_5630081488" value="['args']" style="endArrow=classic;html=1;" parent="1" source="5630081632" target="5630081488" edge="1">
					<mxGeometry width="50" height="50" relative="1" as="geometry">
						<mxPoint x="400" y="440" as="sourcePoint"/>
						<mxPoint x="450" y="390" as="targetPoint"/>
					</mxGeometry>
				</mxCell>
				<mxCell id="5630081488_5630081296" value="['args', 0]" style="endArrow=classic;html=1;" parent="1" source="5630081488" target="5630081296" edge="1">
					<mxGeometry width="50" height="50" relative="1" as="geometry">
						<mxPoint x="400" y="440" as="sourcePoint"/>
						<mxPoint x="450" y="390" as="targetPoint"/>
					</mxGeometry>
				</mxCell>
				<mxCell id="5630081488_5630081248" value="['args', 1]" style="endArrow=classic;html=1;" parent="1" source="5630081488" target="5630081248" edge="1">
					<mxGeometry width="50" height="50" relative="1" as="geometry">
						<mxPoint x="400" y="440" as="sourcePoint"/>
						<mxPoint x="450" y="390" as="targetPoint"/>
					</mxGeometry>
				</mxCell>
				<mxCell id="5630081632_5630081392" value="['body', 0]" style="endArrow=classic;html=1;" parent="1" source="5630081632" target="5630081392" edge="1">
					<mxGeometry width="50" height="50" relative="1" as="geometry">
						<mxPoint x="400" y="440" as="sourcePoint"/>
						<mxPoint x="450" y="390" as="targetPoint"/>
					</mxGeometry>
				</mxCell>
				<mxCell id="5630081392_5630081152" value="['value']" style="endArrow=classic;html=1;" parent="1" source="5630081392" target="5630081152" edge="1">
					<mxGeometry width="50" height="50" relative="1" as="geometry">
						<mxPoint x="400" y="440" as="sourcePoint"/>
						<mxPoint x="450" y="390" as="targetPoint"/>
					</mxGeometry>
				</mxCell>
				<mxCell id="5630081152_5630081008" value="['left']" style="endArrow=classic;html=1;" parent="1" source="5630081152" target="5630081008" edge="1">
					<mxGeometry width="50" height="50" relative="1" as="geometry">
						<mxPoint x="400" y="440" as="sourcePoint"/>
						<mxPoint x="450" y="390" as="targetPoint"/>
					</mxGeometry>
				</mxCell>
				<mxCell id="5630081008_5630080864" value="['ctx']" style="endArrow=classic;html=1;" parent="1" source="5630081008" target="5630080864" edge="1">
					<mxGeometry width="50" height="50" relative="1" as="geometry">
						<mxPoint x="400" y="440" as="sourcePoint"/>
						<mxPoint x="450" y="390" as="targetPoint"/>
					</mxGeometry>
				</mxCell>
				<mxCell id="5630081152_5630080912" value="['op']" style="endArrow=classic;html=1;" parent="1" source="5630081152" target="5630080912" edge="1">
					<mxGeometry width="50" height="50" relative="1" as="geometry">
						<mxPoint x="400" y="440" as="sourcePoint"/>
						<mxPoint x="450" y="390" as="targetPoint"/>
					</mxGeometry>
				</mxCell>
				<mxCell id="5630081152_5630080768" value="['right']" style="endArrow=classic;html=1;" parent="1" source="5630081152" target="5630080768" edge="1">
					<mxGeometry width="50" height="50" relative="1" as="geometry">
						<mxPoint x="400" y="440" as="sourcePoint"/>
						<mxPoint x="450" y="390" as="targetPoint"/>
					</mxGeometry>
				</mxCell>
				<mxCell id="5630080768_5630080864" value="['ctx']" style="endArrow=classic;html=1;" parent="1" source="5630080768" target="5630080864" edge="1">
					<mxGeometry width="50" height="50" relative="1" as="geometry">
						<mxPoint x="400" y="440" as="sourcePoint"/>
						<mxPoint x="450" y="390" as="targetPoint"/>
					</mxGeometry>
				</mxCell>
				<mxCell id="5630082016_5630081536" value="['body', 1]" style="endArrow=classic;html=1;" parent="1" source="5630082016" target="5630081536" edge="1">
					<mxGeometry width="50" height="50" relative="1" as="geometry">
						<mxPoint x="400" y="440" as="sourcePoint"/>
						<mxPoint x="450" y="390" as="targetPoint"/>
					</mxGeometry>
				</mxCell>
				<mxCell id="5630081536_5630081344" value="['targets', 0]" style="endArrow=classic;html=1;" parent="1" source="5630081536" target="5630081344" edge="1">
					<mxGeometry width="50" height="50" relative="1" as="geometry">
						<mxPoint x="400" y="440" as="sourcePoint"/>
						<mxPoint x="450" y="390" as="targetPoint"/>
					</mxGeometry>
				</mxCell>
				<mxCell id="5630081344_5630080672" value="['elts', 0]" style="endArrow=classic;html=1;" parent="1" source="5630081344" target="5630080672" edge="1">
					<mxGeometry width="50" height="50" relative="1" as="geometry">
						<mxPoint x="400" y="440" as="sourcePoint"/>
						<mxPoint x="450" y="390" as="targetPoint"/>
					</mxGeometry>
				</mxCell>
				<mxCell id="5630080672_5630079184" value="['ctx']" style="endArrow=classic;html=1;" parent="1" source="5630080672" target="5630079184" edge="1">
					<mxGeometry width="50" height="50" relative="1" as="geometry">
						<mxPoint x="400" y="440" as="sourcePoint"/>
						<mxPoint x="450" y="390" as="targetPoint"/>
					</mxGeometry>
				</mxCell>
				<mxCell id="5630081344_5630080624" value="['elts', 1]" style="endArrow=classic;html=1;" parent="1" source="5630081344" target="5630080624" edge="1">
					<mxGeometry width="50" height="50" relative="1" as="geometry">
						<mxPoint x="400" y="440" as="sourcePoint"/>
						<mxPoint x="450" y="390" as="targetPoint"/>
					</mxGeometry>
				</mxCell>
				<mxCell id="5630080624_5630079184" value="['ctx']" style="endArrow=classic;html=1;" parent="1" source="5630080624" target="5630079184" edge="1">
					<mxGeometry width="50" height="50" relative="1" as="geometry">
						<mxPoint x="400" y="440" as="sourcePoint"/>
						<mxPoint x="450" y="390" as="targetPoint"/>
					</mxGeometry>
				</mxCell>
				<mxCell id="5630081344_5630079184" value="['ctx']" style="endArrow=classic;html=1;" parent="1" source="5630081344" target="5630079184" edge="1">
					<mxGeometry width="50" height="50" relative="1" as="geometry">
						<mxPoint x="400" y="440" as="sourcePoint"/>
						<mxPoint x="450" y="390" as="targetPoint"/>
					</mxGeometry>
				</mxCell>
				<mxCell id="5630081536_5630081584" value="['value']" style="endArrow=classic;html=1;" parent="1" source="5630081536" target="5630081584" edge="1">
					<mxGeometry width="50" height="50" relative="1" as="geometry">
						<mxPoint x="400" y="440" as="sourcePoint"/>
						<mxPoint x="450" y="390" as="targetPoint"/>
					</mxGeometry>
				</mxCell>
				<mxCell id="5630081584_5630080192" value="['elts', 0]" style="endArrow=classic;html=1;" parent="1" source="5630081584" target="5630080192" edge="1">
					<mxGeometry width="50" height="50" relative="1" as="geometry">
						<mxPoint x="400" y="440" as="sourcePoint"/>
						<mxPoint x="450" y="390" as="targetPoint"/>
					</mxGeometry>
				</mxCell>
				<mxCell id="5630081584_5630080384" value="['elts', 1]" style="endArrow=classic;html=1;" parent="1" source="5630081584" target="5630080384" edge="1">
					<mxGeometry width="50" height="50" relative="1" as="geometry">
						<mxPoint x="400" y="440" as="sourcePoint"/>
						<mxPoint x="450" y="390" as="targetPoint"/>
					</mxGeometry>
				</mxCell>
				<mxCell id="5630081584_5630080864" value="['ctx']" style="endArrow=classic;html=1;" parent="1" source="5630081584" target="5630080864" edge="1">
					<mxGeometry width="50" height="50" relative="1" as="geometry">
						<mxPoint x="400" y="440" as="sourcePoint"/>
						<mxPoint x="450" y="390" as="targetPoint"/>
					</mxGeometry>
				</mxCell>
				<mxCell id="5630082016_5630081200" value="['body', 2]" style="endArrow=classic;html=1;" parent="1" source="5630082016" target="5630081200" edge="1">
					<mxGeometry width="50" height="50" relative="1" as="geometry">
						<mxPoint x="400" y="440" as="sourcePoint"/>
						<mxPoint x="450" y="390" as="targetPoint"/>
					</mxGeometry>
				</mxCell>
				<mxCell id="5630081200_5630080960" value="['targets', 0]" style="endArrow=classic;html=1;" parent="1" source="5630081200" target="5630080960" edge="1">
					<mxGeometry width="50" height="50" relative="1" as="geometry">
						<mxPoint x="400" y="440" as="sourcePoint"/>
						<mxPoint x="450" y="390" as="targetPoint"/>
					</mxGeometry>
				</mxCell>
				<mxCell id="5630080960_5630079184" value="['ctx']" style="endArrow=classic;html=1;" parent="1" source="5630080960" target="5630079184" edge="1">
					<mxGeometry width="50" height="50" relative="1" as="geometry">
						<mxPoint x="400" y="440" as="sourcePoint"/>
						<mxPoint x="450" y="390" as="targetPoint"/>
					</mxGeometry>
				</mxCell>
				<mxCell id="5630081200_5630081056" value="['value']" style="endArrow=classic;html=1;" parent="1" source="5630081200" target="5630081056" edge="1">
					<mxGeometry width="50" height="50" relative="1" as="geometry">
						<mxPoint x="400" y="440" as="sourcePoint"/>
						<mxPoint x="450" y="390" as="targetPoint"/>
					</mxGeometry>
				</mxCell>
				<mxCell id="5630081056_5630079424" value="['func']" style="endArrow=classic;html=1;" parent="1" source="5630081056" target="5630079424" edge="1">
					<mxGeometry width="50" height="50" relative="1" as="geometry">
						<mxPoint x="400" y="440" as="sourcePoint"/>
						<mxPoint x="450" y="390" as="targetPoint"/>
					</mxGeometry>
				</mxCell>
				<mxCell id="5630079424_5630080864" value="['ctx']" style="endArrow=classic;html=1;" parent="1" source="5630079424" target="5630080864" edge="1">
					<mxGeometry width="50" height="50" relative="1" as="geometry">
						<mxPoint x="400" y="440" as="sourcePoint"/>
						<mxPoint x="450" y="390" as="targetPoint"/>
					</mxGeometry>
				</mxCell>
				<mxCell id="5630081056_5630024128" value="['args', 0]" style="endArrow=classic;html=1;" parent="1" source="5630081056" target="5630024128" edge="1">
					<mxGeometry width="50" height="50" relative="1" as="geometry">
						<mxPoint x="400" y="440" as="sourcePoint"/>
						<mxPoint x="450" y="390" as="targetPoint"/>
					</mxGeometry>
				</mxCell>
				<mxCell id="5630024128_5630080864" value="['ctx']" style="endArrow=classic;html=1;" parent="1" source="5630024128" target="5630080864" edge="1">
					<mxGeometry width="50" height="50" relative="1" as="geometry">
						<mxPoint x="400" y="440" as="sourcePoint"/>
						<mxPoint x="450" y="390" as="targetPoint"/>
					</mxGeometry>
				</mxCell>
				<mxCell id="5630081056_5630032432" value="['args', 1]" style="endArrow=classic;html=1;" parent="1" source="5630081056" target="5630032432" edge="1">
					<mxGeometry width="50" height="50" relative="1" as="geometry">
						<mxPoint x="400" y="440" as="sourcePoint"/>
						<mxPoint x="450" y="390" as="targetPoint"/>
					</mxGeometry>
				</mxCell>
				<mxCell id="5630032432_5630080864" value="['ctx']" style="endArrow=classic;html=1;" parent="1" source="5630032432" target="5630080864" edge="1">
					<mxGeometry width="50" height="50" relative="1" as="geometry">
						<mxPoint x="400" y="440" as="sourcePoint"/>
						<mxPoint x="450" y="390" as="targetPoint"/>
					</mxGeometry>
				</mxCell>
				<mxCell id="5630082016_5630081104" value="['body', 3]" style="endArrow=classic;html=1;" parent="1" source="5630082016" target="5630081104" edge="1">
					<mxGeometry width="50" height="50" relative="1" as="geometry">
						<mxPoint x="400" y="440" as="sourcePoint"/>
						<mxPoint x="450" y="390" as="targetPoint"/>
					</mxGeometry>
				</mxCell>
				<mxCell id="5630081104_5630080000" value="['value']" style="endArrow=classic;html=1;" parent="1" source="5630081104" target="5630080000" edge="1">
					<mxGeometry width="50" height="50" relative="1" as="geometry">
						<mxPoint x="400" y="440" as="sourcePoint"/>
						<mxPoint x="450" y="390" as="targetPoint"/>
					</mxGeometry>
				</mxCell>
				<mxCell id="5630080000_5630080864" value="['ctx']" style="endArrow=classic;html=1;" parent="1" source="5630080000" target="5630080864" edge="1">
					<mxGeometry width="50" height="50" relative="1" as="geometry">
						<mxPoint x="400" y="440" as="sourcePoint"/>
						<mxPoint x="450" y="390" as="targetPoint"/>
					</mxGeometry>
				</mxCell>
			</root>
		</mxGraphModel>
	</diagram>
</mxfile>
